# xmcd
#
# Track frame offsets: 
#        150
#        15019
#        30526
#        41890
#        57488
#        69236
#        84784
#        97678
#        110566
#        124689
#        138175
#        151498
#        166580
#        183137
#        198142
#        209134
#        221071
#        233696
#        247969
#        262110
#
# Disc length: 3719 seconds
#
# Revision: 3
# Processed by: cddbd v1.5.2PL0 Copyright (c) Steve Scherf et al.
# Submitted via: ExactAudioCopy v0.99pb4
#
DISCID=000e8514
DTITLE=David Gates - The David Gates Songbook
DYEAR=2002
DGENRE=Pop
TTITLE0=Make It With You
TTITLE1=Find Me
TTITLE2=Baby I'm-A Want You
TTITLE3=I Can't Play The Songs
TTITLE4=If
TTITLE5=Love Is Always Seventeen
TTITLE6=It Don't Matter To Me
TTITLE7=The Mustang
TTITLE8=Everything I Own
TTITLE9=Mirror, Mirror
TTITLE10=Lost Without Your Love
TTITLE11=This Could Be Forever
TTITLE12=Aubrey
TTITLE13=Sail Around The World
TTITLE14=Part-Time Love
TTITLE15=Sweet Surrender
TTITLE16=Goodbye Girl
TTITLE17=Never Let Her Go
TTITLE18=Diary
TTITLE19=The Guitar Man
EXTD=
EXTT0=
EXTT1=
EXTT2=
EXTT3=
EXTT4=
EXTT5=
EXTT6=
EXTT7=
EXTT8=
EXTT9=
EXTT10=
EXTT11=
EXTT12=
EXTT13=
EXTT14=
EXTT15=
EXTT16=
EXTT17=
EXTT18=
EXTT19=
PLAYORDER=
